<svg width="200" height="200" viewBox="0 0 200 200" fill="none" xmlns="http://www.w3.org/2000/svg">
<rect width="200" height="200" rx="16" fill="url(#paint0_linear_4222_3)"/>
<path d="M121.074 106.424V120.76C121.074 121.699 120.647 122.168 119.794 122.168H110.194C109.426 122.168 109.042 121.699 109.042 120.76V52.536C109.042 51.512 109.426 51 110.194 51H110.834C114.162 51 116.679 51.8533 118.386 53.56C120.178 55.1813 121.074 57.912 121.074 61.752V91.448L136.05 75.704C136.818 74.5947 137.714 74.04 138.738 74.04H149.49C149.917 74.04 150.173 74.2533 150.258 74.68C150.343 75.0213 150.301 75.32 150.13 75.576L135.026 91.576L152.05 120.76C152.221 121.101 152.221 121.443 152.05 121.784C151.879 122.04 151.581 122.168 151.154 122.168H140.658C139.293 122.168 138.397 121.656 137.97 120.632L126.578 100.664L121.074 106.424Z" fill="white"/>
<path d="M84.992 79.544V52.536C84.992 51.512 85.4613 51 86.4 51H87.04C90.368 51 92.8853 51.8533 94.592 53.56C96.384 55.1813 97.28 57.912 97.28 61.752V120.76C97.28 121.699 96.8533 122.168 96 122.168H86.4C85.4613 122.168 84.992 121.699 84.992 120.76V116.152C81.408 120.931 76.416 123.32 70.016 123.32C65.2373 123.32 61.184 122.168 57.856 119.864C54.6133 117.56 52.1387 114.488 50.432 110.648C48.8107 106.808 48 102.584 48 97.976C48 93.1973 48.896 88.9307 50.688 85.176C52.48 81.336 55.0827 78.3067 58.496 76.088C61.9093 73.8693 66.0053 72.76 70.784 72.76C74.0267 72.76 76.8427 73.3573 79.232 74.552C81.7067 75.7467 83.6267 77.4107 84.992 79.544ZM72.832 111.8C74.4533 111.8 76.2027 111.459 78.08 110.776C79.9573 110.008 81.5787 108.643 82.944 106.68C84.3093 104.717 84.992 101.816 84.992 97.976C84.992 94.136 84.3093 91.2773 82.944 89.4C81.5787 87.4373 79.9573 86.1573 78.08 85.56C76.2027 84.8773 74.496 84.536 72.96 84.536C71.2533 84.536 69.4187 84.92 67.456 85.688C65.4933 86.456 63.8293 87.8213 62.464 89.784C61.184 91.6613 60.544 94.392 60.544 97.976C60.544 101.645 61.2267 104.504 62.592 106.552C64.0427 108.515 65.7067 109.88 67.584 110.648C69.5467 111.416 71.296 111.8 72.832 111.8Z" fill="white"/>
<path d="M131.168 147.136C131.168 148.075 130.699 148.544 129.76 148.544L61.536 148.544C60.512 148.544 60 148.075 60 147.136L60 145.984C60 142.656 60.8533 140.181 62.56 138.56C64.2667 136.853 67.1253 136 71.136 136L129.76 136C130.699 136 131.168 136.469 131.168 137.408V147.136Z" fill="white"/>
<path d="M70 137.408C70 136.469 70.4693 136 71.408 136L139.632 136C140.656 136 141.168 136.469 141.168 137.408V138.56C141.168 141.888 140.315 144.363 138.608 145.984C136.901 147.691 134.043 148.544 130.032 148.544L71.408 148.544C70.4693 148.544 70 148.075 70 147.136L70 137.408Z" fill="white"/>
<defs>
<linearGradient id="paint0_linear_4222_3" x1="100" y1="0" x2="100" y2="200" gradientUnits="userSpaceOnUse">
<stop stop-color="#2A2A2A"/>
<stop offset="1"/>
</linearGradient>
</defs>
</svg>
