<svg width="150" height="150" viewBox="0 0 150 150" fill="none" xmlns="http://www.w3.org/2000/svg">
<path d="M0 150C19.6983 150 39.2037 146.12 57.4025 138.582C75.6014 131.044 92.1372 119.995 106.066 106.066C119.995 92.1372 131.044 75.6014 138.582 57.4025C146.12 39.2037 150 19.6983 150 0L1.49021e-05 9.53595e-06L0 150Z" fill="#192026"/>
<path d="M149 149L100 149C72.938 149 51 127.062 51 100C51 72.938 72.9381 51 100 51C127.062 51 149 72.9381 149 100L149 149Z" stroke="url(#paint0_linear_287_947)" stroke-width="2"/>
<defs>
<linearGradient id="paint0_linear_287_947" x1="150" y1="150" x2="65.5" y2="65.5" gradientUnits="userSpaceOnUse">
<stop stop-color="#192026"/>
<stop offset="0.583333" stop-color="#192026"/>
<stop offset="0.614583" stop-color="white"/>
<stop offset="1" stop-color="white"/>
</linearGradient>
</defs>
</svg>
